<?xml version="1.0" encoding="UTF-8" standalone="no"?>
<!DOCTYPE svg PUBLIC "-//W3C//DTD SVG 1.1//EN"
 "http://www.w3.org/Graphics/SVG/1.1/DTD/svg11.dtd">
<!-- Generated by graphviz version 2.44.0 (20200408.0750)
 -->
<!-- Title: dependency&#45;cruiser output Pages: 1 -->
<svg width="294pt" height="365pt"
 viewBox="0.00 0.00 294.02 365.00" xmlns="http://www.w3.org/2000/svg" xmlns:xlink="http://www.w3.org/1999/xlink">
<g id="graph0" class="graph" transform="scale(1 1) rotate(0) translate(4 361)">
<title>dependency&#45;cruiser output</title>
<polygon fill="white" stroke="transparent" points="-4,4 -4,-361 290.02,-361 290.02,4 -4,4"/>
<g id="clust1" class="cluster">
<title>cluster_src</title>
<path fill="#ffffff" stroke="black" stroke-width="2" d="M20,-8C20,-8 266.02,-8 266.02,-8 272.02,-8 278.02,-14 278.02,-20 278.02,-20 278.02,-337 278.02,-337 278.02,-343 272.02,-349 266.02,-349 266.02,-349 20,-349 20,-349 14,-349 8,-343 8,-337 8,-337 8,-20 8,-20 8,-14 14,-8 20,-8"/>
<text text-anchor="middle" x="143.01" y="-336.9" font-family="Helvetica,sans-Serif" font-weight="bold" font-size="9.00">src</text>
</g>
<g id="clust2" class="cluster">
<title>cluster_src/difference</title>
<path fill="#ffffff" stroke="black" stroke-width="2" d="M42.75,-234C42.75,-234 258.02,-234 258.02,-234 264.02,-234 270.02,-240 270.02,-246 270.02,-246 270.02,-310 270.02,-310 270.02,-316 264.02,-322 258.02,-322 258.02,-322 42.75,-322 42.75,-322 36.75,-322 30.75,-316 30.75,-310 30.75,-310 30.75,-246 30.75,-246 30.75,-240 36.75,-234 42.75,-234"/>
<text text-anchor="middle" x="150.38" y="-309.9" font-family="Helvetica,sans-Serif" font-weight="bold" font-size="9.00">difference</text>
</g>
<g id="clust3" class="cluster">
<title>cluster_src/difference/alina</title>
<path fill="#ffffff" stroke="black" stroke-width="2" d="M159.51,-242C159.51,-242 250.02,-242 250.02,-242 256.02,-242 262.02,-248 262.02,-254 262.02,-254 262.02,-283 262.02,-283 262.02,-289 256.02,-295 250.02,-295 250.02,-295 159.51,-295 159.51,-295 153.51,-295 147.51,-289 147.51,-283 147.51,-283 147.51,-254 147.51,-254 147.51,-248 153.51,-242 159.51,-242"/>
<text text-anchor="middle" x="204.76" y="-282.9" font-family="Helvetica,sans-Serif" font-weight="bold" font-size="9.00">alina</text>
</g>
<g id="clust4" class="cluster">
<title>cluster_src/sort&#45;numbers</title>
<path fill="#ffffff" stroke="black" stroke-width="2" d="M28,-77C28,-77 247.76,-77 247.76,-77 253.76,-77 259.76,-83 259.76,-89 259.76,-89 259.76,-214 259.76,-214 259.76,-220 253.76,-226 247.76,-226 247.76,-226 28,-226 28,-226 22,-226 16,-220 16,-214 16,-214 16,-89 16,-89 16,-83 22,-77 28,-77"/>
<text text-anchor="middle" x="137.88" y="-213.9" font-family="Helvetica,sans-Serif" font-weight="bold" font-size="9.00">sort&#45;numbers</text>
</g>
<g id="clust5" class="cluster">
<title>cluster_src/sort&#45;numbers/alina</title>
<path fill="#ffffff" stroke="black" stroke-width="2" d="M36,-146C36,-146 127.51,-146 127.51,-146 133.51,-146 139.51,-152 139.51,-158 139.51,-158 139.51,-187 139.51,-187 139.51,-193 133.51,-199 127.51,-199 127.51,-199 36,-199 36,-199 30,-199 24,-193 24,-187 24,-187 24,-158 24,-158 24,-152 30,-146 36,-146"/>
<text text-anchor="middle" x="81.75" y="-186.9" font-family="Helvetica,sans-Serif" font-weight="bold" font-size="9.00">alina</text>
</g>
<g id="clust6" class="cluster">
<title>cluster_src/sort&#45;numbers/example&#45;built&#45;in&#45;sort</title>
<path fill="#ffffff" stroke="black" stroke-width="2" d="M36,-85C36,-85 239.76,-85 239.76,-85 245.76,-85 251.76,-91 251.76,-97 251.76,-97 251.76,-126 251.76,-126 251.76,-132 245.76,-138 239.76,-138 239.76,-138 36,-138 36,-138 30,-138 24,-132 24,-126 24,-126 24,-97 24,-97 24,-91 30,-85 36,-85"/>
<text text-anchor="middle" x="137.88" y="-125.9" font-family="Helvetica,sans-Serif" font-weight="bold" font-size="9.00">example&#45;built&#45;in&#45;sort</text>
</g>
<g id="clust7" class="cluster">
<title>cluster_src/split&#45;object</title>
<path fill="#ffffff" stroke="black" stroke-width="2" d="M41,-16C41,-16 122.51,-16 122.51,-16 128.51,-16 134.51,-22 134.51,-28 134.51,-28 134.51,-57 134.51,-57 134.51,-63 128.51,-69 122.51,-69 122.51,-69 41,-69 41,-69 35,-69 29,-63 29,-57 29,-57 29,-28 29,-28 29,-22 35,-16 41,-16"/>
<text text-anchor="middle" x="81.75" y="-56.9" font-family="Helvetica,sans-Serif" font-weight="bold" font-size="9.00">split&#45;object</text>
</g>
<!-- src/difference/alina/solution&#45;difference.js -->
<g id="node1" class="node">
<title>src/difference/alina/solution&#45;difference.js</title>
<g id="a_node1"><a xlink:href="../src/difference/alina/solution-difference.js" xlink:title="solution&#45;difference.js">
<path fill="#ffffcc" stroke="black" d="M247.58,-268.3C247.58,-268.3 161.95,-268.3 161.95,-268.3 158.85,-268.3 155.75,-265.2 155.75,-262.1 155.75,-262.1 155.75,-255.9 155.75,-255.9 155.75,-252.8 158.85,-249.7 161.95,-249.7 161.95,-249.7 247.58,-249.7 247.58,-249.7 250.68,-249.7 253.78,-252.8 253.78,-255.9 253.78,-255.9 253.78,-262.1 253.78,-262.1 253.78,-265.2 250.68,-268.3 247.58,-268.3"/>
<text text-anchor="middle" x="204.76" y="-256.3" font-family="Helvetica,sans-Serif" font-size="9.00">solution&#45;difference.js</text>
</a>
</g>
</g>
<!-- src/difference/difference.spec.js -->
<g id="node2" class="node">
<title>src/difference/difference.spec.js</title>
<g id="a_node2"><a xlink:href="../src/difference/difference.spec.js" xlink:title="difference.spec.js">
<path fill="#ffffcc" stroke="black" d="M118.57,-268.3C118.57,-268.3 44.94,-268.3 44.94,-268.3 41.84,-268.3 38.74,-265.2 38.74,-262.1 38.74,-262.1 38.74,-255.9 38.74,-255.9 38.74,-252.8 41.84,-249.7 44.94,-249.7 44.94,-249.7 118.57,-249.7 118.57,-249.7 121.67,-249.7 124.77,-252.8 124.77,-255.9 124.77,-255.9 124.77,-262.1 124.77,-262.1 124.77,-265.2 121.67,-268.3 118.57,-268.3"/>
<text text-anchor="middle" x="81.75" y="-256.3" font-family="Helvetica,sans-Serif" font-size="9.00">difference.spec.js</text>
</a>
</g>
</g>
<!-- src/difference/difference.spec.js&#45;&gt;src/difference/alina/solution&#45;difference.js -->
<g id="edge1" class="edge">
<title>src/difference/difference.spec.js&#45;&gt;src/difference/alina/solution&#45;difference.js</title>
<path fill="none" stroke="#000000" stroke-width="2" stroke-opacity="0.200000" d="M125.08,-259C132.9,-259 141.17,-259 149.29,-259"/>
<polygon fill="#000000" fill-opacity="0.200000" stroke="#000000" stroke-width="2" stroke-opacity="0.200000" points="149.46,-261.1 155.46,-259 149.46,-256.9 149.46,-261.1"/>
</g>
<!-- src/sort&#45;numbers/alina/sort&#45;numbers.spec.js -->
<g id="node3" class="node">
<title>src/sort&#45;numbers/alina/sort&#45;numbers.spec.js</title>
<g id="a_node3"><a xlink:href="../src/sort-numbers/alina/sort-numbers.spec.js" xlink:title="sort&#45;numbers.spec.js">
<path fill="#ccffcc" stroke="black" d="M125.06,-172.3C125.06,-172.3 38.45,-172.3 38.45,-172.3 35.35,-172.3 32.25,-169.2 32.25,-166.1 32.25,-166.1 32.25,-159.9 32.25,-159.9 32.25,-156.8 35.35,-153.7 38.45,-153.7 38.45,-153.7 125.06,-153.7 125.06,-153.7 128.16,-153.7 131.26,-156.8 131.26,-159.9 131.26,-159.9 131.26,-166.1 131.26,-166.1 131.26,-169.2 128.16,-172.3 125.06,-172.3"/>
<text text-anchor="middle" x="81.75" y="-160.3" font-family="Helvetica,sans-Serif" font-size="9.00">sort&#45;numbers.spec.js</text>
</a>
</g>
</g>
<!-- src/sort&#45;numbers/example&#45;built&#45;in&#45;sort/sort&#45;numbers.js -->
<g id="node4" class="node">
<title>src/sort&#45;numbers/example&#45;built&#45;in&#45;sort/sort&#45;numbers.js</title>
<g id="a_node4"><a xlink:href="../src/sort-numbers/example-built-in-sort/sort-numbers.js" xlink:title="sort&#45;numbers.js">
<path fill="#ffffcc" stroke="black" d="M237.56,-111.3C237.56,-111.3 171.96,-111.3 171.96,-111.3 168.86,-111.3 165.76,-108.2 165.76,-105.1 165.76,-105.1 165.76,-98.9 165.76,-98.9 165.76,-95.8 168.86,-92.7 171.96,-92.7 171.96,-92.7 237.56,-92.7 237.56,-92.7 240.66,-92.7 243.76,-95.8 243.76,-98.9 243.76,-98.9 243.76,-105.1 243.76,-105.1 243.76,-108.2 240.66,-111.3 237.56,-111.3"/>
<text text-anchor="middle" x="204.76" y="-99.3" font-family="Helvetica,sans-Serif" font-size="9.00">sort&#45;numbers.js</text>
</a>
</g>
</g>
<!-- src/sort&#45;numbers/example&#45;built&#45;in&#45;sort/sort&#45;numbers.spec.js -->
<g id="node5" class="node">
<title>src/sort&#45;numbers/example&#45;built&#45;in&#45;sort/sort&#45;numbers.spec.js</title>
<g id="a_node5"><a xlink:href="../src/sort-numbers/example-built-in-sort/sort-numbers.spec.js" xlink:title="sort&#45;numbers.spec.js">
<path fill="#ffffcc" stroke="black" d="M125.06,-111.3C125.06,-111.3 38.45,-111.3 38.45,-111.3 35.35,-111.3 32.25,-108.2 32.25,-105.1 32.25,-105.1 32.25,-98.9 32.25,-98.9 32.25,-95.8 35.35,-92.7 38.45,-92.7 38.45,-92.7 125.06,-92.7 125.06,-92.7 128.16,-92.7 131.26,-95.8 131.26,-98.9 131.26,-98.9 131.26,-105.1 131.26,-105.1 131.26,-108.2 128.16,-111.3 125.06,-111.3"/>
<text text-anchor="middle" x="81.75" y="-99.3" font-family="Helvetica,sans-Serif" font-size="9.00">sort&#45;numbers.spec.js</text>
</a>
</g>
</g>
<!-- src/sort&#45;numbers/example&#45;built&#45;in&#45;sort/sort&#45;numbers.spec.js&#45;&gt;src/sort&#45;numbers/example&#45;built&#45;in&#45;sort/sort&#45;numbers.js -->
<g id="edge2" class="edge">
<title>src/sort&#45;numbers/example&#45;built&#45;in&#45;sort/sort&#45;numbers.spec.js&#45;&gt;src/sort&#45;numbers/example&#45;built&#45;in&#45;sort/sort&#45;numbers.js</title>
<path fill="none" stroke="#000000" stroke-width="2" stroke-opacity="0.200000" d="M131.28,-102C140.57,-102 150.26,-102 159.42,-102"/>
<polygon fill="#000000" fill-opacity="0.200000" stroke="#000000" stroke-width="2" stroke-opacity="0.200000" points="159.66,-104.1 165.66,-102 159.66,-99.9 159.66,-104.1"/>
</g>
<!-- src/split&#45;object/split&#45;object.spec.js -->
<g id="node6" class="node">
<title>src/split&#45;object/split&#45;object.spec.js</title>
<g id="a_node6"><a xlink:href="../src/split-object/split-object.spec.js" xlink:title="split&#45;object.spec.js">
<path fill="#ccffcc" stroke="black" d="M120.06,-42.3C120.06,-42.3 43.45,-42.3 43.45,-42.3 40.34,-42.3 37.24,-39.2 37.24,-36.1 37.24,-36.1 37.24,-29.9 37.24,-29.9 37.24,-26.8 40.34,-23.7 43.45,-23.7 43.45,-23.7 120.06,-23.7 120.06,-23.7 123.16,-23.7 126.26,-26.8 126.26,-29.9 126.26,-29.9 126.26,-36.1 126.26,-36.1 126.26,-39.2 123.16,-42.3 120.06,-42.3"/>
<text text-anchor="middle" x="81.75" y="-30.3" font-family="Helvetica,sans-Serif" font-size="9.00">split&#45;object.spec.js</text>
</a>
</g>
</g>
</g>
</svg>
