<?xml version="1.0" encoding="UTF-8" standalone="no"?>
<!DOCTYPE svg PUBLIC "-//W3C//DTD SVG 1.1//EN"
 "http://www.w3.org/Graphics/SVG/1.1/DTD/svg11.dtd">
<!-- Generated by graphviz version 2.44.0 (20200408.0750)
 -->
<!-- Title: dependency&#45;cruiser output Pages: 1 -->
<svg width="263pt" height="269pt"
 viewBox="0.00 0.00 262.51 269.00" xmlns="http://www.w3.org/2000/svg" xmlns:xlink="http://www.w3.org/1999/xlink">
<g id="graph0" class="graph" transform="scale(1 1) rotate(0) translate(4 265)">
<title>dependency&#45;cruiser output</title>
<polygon fill="white" stroke="transparent" points="-4,4 -4,-265 258.51,-265 258.51,4 -4,4"/>
<g id="clust1" class="cluster">
<title>cluster_src</title>
<path fill="#ffffff" stroke="black" stroke-width="2" d="M20,-8C20,-8 234.51,-8 234.51,-8 240.51,-8 246.51,-14 246.51,-20 246.51,-20 246.51,-241 246.51,-241 246.51,-247 240.51,-253 234.51,-253 234.51,-253 20,-253 20,-253 14,-253 8,-247 8,-241 8,-241 8,-20 8,-20 8,-14 14,-8 20,-8"/>
<text text-anchor="middle" x="127.25" y="-240.9" font-family="Helvetica,sans-Serif" font-weight="bold" font-size="9.00">src</text>
</g>
<g id="clust2" class="cluster">
<title>cluster_src/difference</title>
<path fill="#ffffff" stroke="black" stroke-width="2" d="M42.75,-173C42.75,-173 120.76,-173 120.76,-173 126.76,-173 132.76,-179 132.76,-185 132.76,-185 132.76,-214 132.76,-214 132.76,-220 126.76,-226 120.76,-226 120.76,-226 42.75,-226 42.75,-226 36.75,-226 30.75,-220 30.75,-214 30.75,-214 30.75,-185 30.75,-185 30.75,-179 36.75,-173 42.75,-173"/>
<text text-anchor="middle" x="81.75" y="-213.9" font-family="Helvetica,sans-Serif" font-weight="bold" font-size="9.00">difference</text>
</g>
<g id="clust3" class="cluster">
<title>cluster_src/sort&#45;numbers</title>
<path fill="#ffffff" stroke="black" stroke-width="2" d="M28,-77C28,-77 226.51,-77 226.51,-77 232.51,-77 238.51,-83 238.51,-89 238.51,-89 238.51,-153 238.51,-153 238.51,-159 232.51,-165 226.51,-165 226.51,-165 28,-165 28,-165 22,-165 16,-159 16,-153 16,-153 16,-89 16,-89 16,-83 22,-77 28,-77"/>
<text text-anchor="middle" x="127.25" y="-152.9" font-family="Helvetica,sans-Serif" font-weight="bold" font-size="9.00">sort&#45;numbers</text>
</g>
<g id="clust4" class="cluster">
<title>cluster_src/sort&#45;numbers/example&#45;built&#45;in&#45;sort</title>
<path fill="#ffffff" stroke="black" stroke-width="2" d="M36,-85C36,-85 218.51,-85 218.51,-85 224.51,-85 230.51,-91 230.51,-97 230.51,-97 230.51,-126 230.51,-126 230.51,-132 224.51,-138 218.51,-138 218.51,-138 36,-138 36,-138 30,-138 24,-132 24,-126 24,-126 24,-97 24,-97 24,-91 30,-85 36,-85"/>
<text text-anchor="middle" x="127.25" y="-125.9" font-family="Helvetica,sans-Serif" font-weight="bold" font-size="9.00">example&#45;built&#45;in&#45;sort</text>
</g>
<g id="clust5" class="cluster">
<title>cluster_src/split&#45;object</title>
<path fill="#ffffff" stroke="black" stroke-width="2" d="M41,-16C41,-16 122.51,-16 122.51,-16 128.51,-16 134.51,-22 134.51,-28 134.51,-28 134.51,-57 134.51,-57 134.51,-63 128.51,-69 122.51,-69 122.51,-69 41,-69 41,-69 35,-69 29,-63 29,-57 29,-57 29,-28 29,-28 29,-22 35,-16 41,-16"/>
<text text-anchor="middle" x="81.75" y="-56.9" font-family="Helvetica,sans-Serif" font-weight="bold" font-size="9.00">split&#45;object</text>
</g>
<!-- src/difference/difference.spec.js -->
<g id="node1" class="node">
<title>src/difference/difference.spec.js</title>
<g id="a_node1"><a xlink:href="../src/difference/difference.spec.js" xlink:title="difference.spec.js">
<path fill="#ccffcc" stroke="black" d="M118.57,-199.3C118.57,-199.3 44.94,-199.3 44.94,-199.3 41.84,-199.3 38.74,-196.2 38.74,-193.1 38.74,-193.1 38.74,-186.9 38.74,-186.9 38.74,-183.8 41.84,-180.7 44.94,-180.7 44.94,-180.7 118.57,-180.7 118.57,-180.7 121.67,-180.7 124.77,-183.8 124.77,-186.9 124.77,-186.9 124.77,-193.1 124.77,-193.1 124.77,-196.2 121.67,-199.3 118.57,-199.3"/>
<text text-anchor="middle" x="81.75" y="-187.3" font-family="Helvetica,sans-Serif" font-size="9.00">difference.spec.js</text>
</a>
</g>
</g>
<!-- src/sort&#45;numbers/example&#45;built&#45;in&#45;sort/sort&#45;numbers.js -->
<g id="node2" class="node">
<title>src/sort&#45;numbers/example&#45;built&#45;in&#45;sort/sort&#45;numbers.js</title>
<g id="a_node2"><a xlink:href="../src/sort-numbers/example-built-in-sort/sort-numbers.js" xlink:title="sort&#45;numbers.js">
<path fill="#ffffcc" stroke="black" d="M216.3,-111.3C216.3,-111.3 150.71,-111.3 150.71,-111.3 147.61,-111.3 144.51,-108.2 144.51,-105.1 144.51,-105.1 144.51,-98.9 144.51,-98.9 144.51,-95.8 147.61,-92.7 150.71,-92.7 150.71,-92.7 216.3,-92.7 216.3,-92.7 219.4,-92.7 222.51,-95.8 222.51,-98.9 222.51,-98.9 222.51,-105.1 222.51,-105.1 222.51,-108.2 219.4,-111.3 216.3,-111.3"/>
<text text-anchor="middle" x="183.51" y="-99.3" font-family="Helvetica,sans-Serif" font-size="9.00">sort&#45;numbers.js</text>
</a>
</g>
</g>
<!-- src/sort&#45;numbers/example&#45;built&#45;in&#45;sort/sort&#45;numbers.spec.js -->
<g id="node3" class="node">
<title>src/sort&#45;numbers/example&#45;built&#45;in&#45;sort/sort&#45;numbers.spec.js</title>
<g id="a_node3"><a xlink:href="../src/sort-numbers/example-built-in-sort/sort-numbers.spec.js" xlink:title="sort&#45;numbers.spec.js">
<path fill="#ffffcc" stroke="black" d="M125.06,-111.3C125.06,-111.3 38.45,-111.3 38.45,-111.3 35.35,-111.3 32.25,-108.2 32.25,-105.1 32.25,-105.1 32.25,-98.9 32.25,-98.9 32.25,-95.8 35.35,-92.7 38.45,-92.7 38.45,-92.7 125.06,-92.7 125.06,-92.7 128.16,-92.7 131.26,-95.8 131.26,-98.9 131.26,-98.9 131.26,-105.1 131.26,-105.1 131.26,-108.2 128.16,-111.3 125.06,-111.3"/>
<text text-anchor="middle" x="81.75" y="-99.3" font-family="Helvetica,sans-Serif" font-size="9.00">sort&#45;numbers.spec.js</text>
</a>
</g>
</g>
<!-- src/sort&#45;numbers/example&#45;built&#45;in&#45;sort/sort&#45;numbers.spec.js&#45;&gt;src/sort&#45;numbers/example&#45;built&#45;in&#45;sort/sort&#45;numbers.js -->
<g id="edge1" class="edge">
<title>src/sort&#45;numbers/example&#45;built&#45;in&#45;sort/sort&#45;numbers.spec.js&#45;&gt;src/sort&#45;numbers/example&#45;built&#45;in&#45;sort/sort&#45;numbers.js</title>
<path fill="none" stroke="#000000" stroke-width="2" stroke-opacity="0.200000" d="M131.46,-102C133.77,-102 136.09,-102 138.39,-102"/>
<polygon fill="#000000" fill-opacity="0.200000" stroke="#000000" stroke-width="2" stroke-opacity="0.200000" points="138.42,-104.1 144.42,-102 138.42,-99.9 138.42,-104.1"/>
</g>
<!-- src/split&#45;object/split&#45;object.spec.js -->
<g id="node4" class="node">
<title>src/split&#45;object/split&#45;object.spec.js</title>
<g id="a_node4"><a xlink:href="../src/split-object/split-object.spec.js" xlink:title="split&#45;object.spec.js">
<path fill="#ccffcc" stroke="black" d="M120.06,-42.3C120.06,-42.3 43.45,-42.3 43.45,-42.3 40.34,-42.3 37.24,-39.2 37.24,-36.1 37.24,-36.1 37.24,-29.9 37.24,-29.9 37.24,-26.8 40.34,-23.7 43.45,-23.7 43.45,-23.7 120.06,-23.7 120.06,-23.7 123.16,-23.7 126.26,-26.8 126.26,-29.9 126.26,-29.9 126.26,-36.1 126.26,-36.1 126.26,-39.2 123.16,-42.3 120.06,-42.3"/>
<text text-anchor="middle" x="81.75" y="-30.3" font-family="Helvetica,sans-Serif" font-size="9.00">split&#45;object.spec.js</text>
</a>
</g>
</g>
</g>
</svg>
